<?xml version="1.0" encoding="utf-8"?>
<!-- Generator: Adobe Illustrator 16.0.0, SVG Export Plug-In . SVG Version: 6.00 Build 0)  -->
<!DOCTYPE svg PUBLIC "-//W3C//DTD SVG 1.1//EN" "http://www.w3.org/Graphics/SVG/1.1/DTD/svg11.dtd">
<svg version="1.1" id="Layer_1" xmlns="http://www.w3.org/2000/svg" xmlns:xlink="http://www.w3.org/1999/xlink" x="0px" y="0px"
	 width="93.996px" height="29.998px" viewBox="0 0 93.996 29.998" enable-background="new 0 0 93.996 29.998" xml:space="preserve">
<path fill="#598DCA" d="M17.082,9.141c-1.31,0.476-2.137,1.705-2.043,3.05l0.031,0.519l-0.523-0.063
	c-1.906-0.243-3.572-1.069-4.987-2.457L8.868,9.501L8.69,10.009c-0.377,1.134-0.136,2.331,0.649,3.135
	c0.419,0.445,0.324,0.509-0.397,0.244c-0.252-0.084-0.472-0.148-0.493-0.117c-0.073,0.075,0.178,1.038,0.377,1.419
	c0.272,0.53,0.828,1.048,1.436,1.356l0.514,0.244l-0.607,0.01c-0.587,0-0.607,0.011-0.545,0.233c0.21,0.689,1.037,1.42,1.959,1.738
	l0.649,0.222l-0.565,0.338c-0.838,0.488-1.822,0.763-2.808,0.783c-0.472,0.011-0.859,0.053-0.859,0.085
	c0,0.106,1.278,0.699,2.021,0.933c2.231,0.688,4.883,0.391,6.873-0.784c1.414-0.837,2.828-2.5,3.488-4.11
	c0.356-0.857,0.713-2.426,0.713-3.177c0-0.487,0.031-0.551,0.618-1.133c0.346-0.339,0.67-0.709,0.733-0.815
	c0.104-0.201,0.094-0.201-0.44-0.021c-0.891,0.318-1.017,0.275-0.576-0.201c0.325-0.339,0.713-0.954,0.713-1.134
	c0-0.031-0.157,0.021-0.335,0.117c-0.188,0.106-0.608,0.265-0.923,0.36l-0.565,0.181l-0.513-0.35
	c-0.283-0.19-0.681-0.402-0.891-0.466C18.381,8.95,17.563,8.971,17.082,9.141z M14.998,29.998C6.715,29.998,0,23.283,0,14.999
	S6.715,0,14.998,0c8.284,0,15,6.715,15,14.999S23.282,29.998,14.998,29.998z"/>
<path fill="#3B589C" d="M44.879,23.159h3.372v-8.161H50.5l0.298-2.812h-2.547l0.003-1.408c0-0.733,0.07-1.126,1.122-1.126h1.406
	V6.84h-2.25c-2.702,0-3.653,1.364-3.653,3.658v1.688h-1.685v2.812h1.685V23.159z M46.996,29.998
	c-8.282,0-14.998-6.715-14.998-14.999S38.714,0,46.996,0c8.284,0,15,6.715,15,14.999S55.28,29.998,46.996,29.998z"/>
<g>
	<path fill="#D64A2E" d="M76.204,13.89c0.384,0,0.706-0.151,0.956-0.437c0.394-0.446,0.565-1.179,0.463-1.958
		c-0.184-1.393-1.177-2.55-2.216-2.58h-0.04c-0.369,0-0.696,0.15-0.946,0.436c-0.388,0.442-0.549,1.14-0.447,1.917
		c0.183,1.39,1.197,2.592,2.214,2.623H76.204z"/>
	<path fill="#D64A2E" d="M77.337,18.085c-0.102-0.069-0.208-0.142-0.316-0.217c-0.319-0.099-0.66-0.149-1.008-0.154h-0.044
		c-1.599,0-3.003,0.969-3.003,2.074c0,1.201,1.202,2.144,2.736,2.144c2.023,0,3.05-0.697,3.05-2.074
		c0-0.131-0.016-0.266-0.047-0.399C78.568,18.923,78.077,18.589,77.337,18.085z"/>
	<path fill="#D64A2E" d="M78.998,0c-8.285,0-15,6.714-15,14.999s6.715,15,15,15c8.282,0,14.998-6.715,14.998-15S87.279,0,78.998,0z
		 M77.633,23.16c-0.599,0.172-1.244,0.261-1.922,0.261c-0.754,0-1.48-0.087-2.156-0.258c-1.31-0.33-2.278-0.957-2.729-1.764
		c-0.194-0.35-0.293-0.721-0.293-1.106c0-0.397,0.095-0.8,0.281-1.199c0.719-1.528,2.608-2.556,4.704-2.556c0.021,0,0.041,0,0.061,0
		c-0.17-0.3-0.254-0.61-0.254-0.937c0-0.164,0.021-0.328,0.064-0.496c-2.196-0.051-3.841-1.66-3.841-3.781
		c0-1.499,1.196-2.957,2.909-3.547c0.513-0.177,1.034-0.267,1.549-0.267h4.697c0.161,0,0.302,0.104,0.352,0.255
		c0.051,0.154-0.005,0.32-0.135,0.414L79.87,8.94c-0.063,0.045-0.14,0.07-0.218,0.07h-0.375c0.486,0.582,0.771,1.411,0.771,2.343
		c0,1.03-0.521,2.004-1.468,2.746c-0.731,0.57-0.761,0.725-0.761,1.053c0.01,0.18,0.52,0.763,1.081,1.16
		c1.311,0.928,1.798,1.835,1.798,3.354C80.698,21.248,79.494,22.62,77.633,23.16z M88.244,15.101c0,0.204-0.167,0.369-0.37,0.369
		h-2.669v2.671c0,0.205-0.165,0.37-0.37,0.37h-0.76c-0.205,0-0.37-0.165-0.37-0.37V15.47h-2.671c-0.202,0-0.369-0.166-0.369-0.369
		v-0.761c0-0.204,0.167-0.37,0.369-0.37h2.671V11.3c0-0.205,0.165-0.369,0.37-0.369h0.76c0.205,0,0.369,0.165,0.369,0.369v2.669
		h2.67c0.203,0,0.37,0.167,0.37,0.37V15.101L88.244,15.101z"/>
</g>
</svg>
